<?xml version="1.0" encoding="utf-8"?>
<!-- Generator: Adobe Illustrator 27.2.0, SVG Export Plug-In . SVG Version: 6.00 Build 0)  -->
<svg version="1.1" id="Camada_1" xmlns="http://www.w3.org/2000/svg" xmlns:xlink="http://www.w3.org/1999/xlink" x="0px" y="0px"
	 viewBox="0 0 512 512" style="enable-background:new 0 0 512 512;" xml:space="preserve">
<style type="text/css">
	.st0{fill:url(#background_00000046299669435799719430000010828135297011338396_);}
	.st1{fill:#FFFFFF;}
</style>
<g id="Layer_2">
	<g id="_127.legal_hammer">
		
			<linearGradient id="background_00000027587128643569179550000007227502869791218847_" gradientUnits="userSpaceOnUse" x1="-435.5692" y1="673.9442" x2="-311.1183" y2="549.4933" gradientTransform="matrix(2.9091 0 0 -2.9091 1342.0909 2035.5455)">
			<stop  offset="0" style="stop-color:#FFD600"/>
			<stop  offset="1" style="stop-color:#EBB000"/>
		</linearGradient>
		<path id="background" style="fill:url(#background_00000027587128643569179550000007227502869791218847_);" d="M256,0L256,0
			c141.4,0,256,114.6,256,256l0,0c0,141.4-114.6,256-256,256l0,0C114.6,512,0,397.4,0,256l0,0C0,114.6,114.6,0,256,0z"/>
	</g>
	<g>
		<path class="st1" d="M377.1,112.4c1-1.1,1.4-2.4,1.6-2.8c0.1-0.4,0.6-0.8,1.3-1.1c2.8-1.5,8.9-1.9,16.2,0.3
			c4.6,1.4,8.8,3.7,11.5,6.3c1.9,1.8,2.5,3.3,2.4,4.1c0,0,0,0.1,0,0.1c-0.1,0.2-0.1,0.4-0.2,0.6c-0.2,0.8-1.5,5-3.6,11.8l-29.8-11.1
			l-1.7-0.7L377.1,112.4z"/>
		<path class="st1" d="M385.7,190.6C351,303.1,304.5,453.2,304.2,454c0,0.1,0,0.1-0.1,0.2l-0.7,2.2c-0.2,0.3-0.4,0.6-0.6,0.9
			c-1.6,2.9-4,5.3-7,6.9l0,0c-4,2.1-8.7,2.6-13,1.2c-7.7-2.4-12.7-9.9-11.9-17.9c0-0.4,0-0.7,0-1.1l82.1-264l11.3,2.8L385.7,190.6z"
			/>
		<polygon class="st1" points="452.5,197.4 378.8,179 350.8,171.9 350.8,171.9 296.1,158.2 312.1,106.8 367.1,127.4 367.1,127.4 
			379.8,132.1 463.2,163.3 		"/>
	</g>
	<g id="Layer_30">
		<path class="st1" d="M96.6,294.1l-11.4,4.8l9.7,22.7l11.4-4.8l-2.4-5.7l11.4-4.8l2.4,5.7c0.8,1.8,2.3,3.1,4.2,3.6l30,7.4
			c1.2,0.3,2.5,0.2,3.6-0.3c3.3,9,5.3,18.3,6.1,27.8c2.2,27.1,8.7,53.6,19.4,78.7l3.7,8.6c1.3,3.1,5,4.6,8.1,3.3l5.7-2.4l4.8,11.4
			l-11.4,4.8l4.8,11.4l34.1-14.5l-4.8-11.4l-11.4,4.8l-4.8-11.4l22.7-9.7c3.1-1.3,4.6-5,3.3-8.1c-11.1-26.2-20.2-53.2-27.3-80.7
			l-8.1-31.6l8.1-3.4l4.6,5.2c12.4,14,25.7,27.1,39.9,39.2c1.8,1.5,4.3,1.9,6.4,1l17-7.2c0.6-0.2,1.1-0.6,1.6-1
			c2.6-2.2,2.9-6.1,0.7-8.7l-36.3-43l21.1-9c0.5-0.2,0.9-0.5,1.3-0.8l20.3-15.3c2.3-1.7,3.1-4.7,2-7.3l-2.4-5.7l11.4-4.8l-4.8-11.4
			l-11.4,4.8l-2.4-5.7c-1.1-2.6-3.8-4.1-6.6-3.7l-25.1,4c-0.5,0.1-1,0.2-1.5,0.4l-17,7.2l-7.2-17c-1.3-3.1-5-4.6-8.1-3.3l-5.7,2.4
			l-5-11.8c18.3-11.1,25.7-34,17.3-53.8l-36.2-85.2l11.4-4.8l-4.8-11.4L63.9,106.8l4.8,11.4l11.4-4.8l36.2,85.2
			c8.4,19.7,30.1,30.3,50.8,24.8l5,11.8l-22.7,9.7l-2.4-5.7l-11.4,4.8l9.7,22.7l11.4-4.8l-2.4-5.7l11.4-4.8l4.8,11.4l-56.8,24.2
			c-3.1,1.3-4.6,5-3.3,8.1l-11.4,4.8L96.6,294.1z"/>
	</g>
</g>
</svg>
